<svg width="20" height="21" viewBox="0 0 20 21" fill="none" xmlns="http://www.w3.org/2000/svg">
<path d="M17.7778 20.5052V15.8545C19.1667 14.2211 20 12.1413 20 9.87689C20 4.6254 15.5222 0.367371 10 0.367371C4.47778 0.367371 0 4.6254 0 9.87689C0 15.1284 4.47778 19.3864 10 19.3864C11.8466 19.3924 13.6615 18.9027 15.2578 17.9678L17.7778 20.5052ZM10 17.1489C5.70444 17.1489 2.22222 13.8933 2.22222 9.87689C2.22222 5.86052 5.70444 2.60491 10 2.60491C14.2956 2.60491 17.7778 5.86052 17.7778 9.87689C17.7778 13.8933 14.2956 17.1489 10 17.1489Z" fill="white"/>
</svg>
