<svg width="46" height="14" viewBox="0 0 46 14" fill="none" xmlns="http://www.w3.org/2000/svg">
<path d="M0 0H2.72129L7.34866 8.3705L11.9759 0H14.6383V13.7543H12.4181V3.21268L8.36051 10.5123H6.27776L2.22035 3.21268V13.7543H0V0Z" fill="url(#paint0_linear_1_328)"/>
<path d="M23.4213 5.84051C22.9563 5.36581 22.3472 5.12836 21.594 5.12817C20.8604 5.12817 20.2464 5.37054 19.752 5.85527C19.2576 6.34 18.9448 6.99171 18.8136 7.81039H24.2172C24.1516 6.97203 23.8863 6.3154 23.4213 5.84051ZM21.8007 13.9999C20.7723 13.9999 19.8685 13.7722 19.0891 13.3169C18.3098 12.8616 17.7022 12.2313 17.2663 11.4259C16.8307 10.6202 16.613 9.6967 16.613 8.65527C16.613 7.60092 16.8258 6.66759 17.2515 5.85527C17.6772 5.04295 18.2683 4.40763 19.0249 3.94934C19.7814 3.49094 20.6508 3.26169 21.6333 3.2616C22.6091 3.2616 23.4492 3.49248 24.1533 3.95426C24.8575 4.41603 25.3994 5.06282 25.7789 5.89462C26.1587 6.72653 26.3487 7.7024 26.3487 8.82225V9.43214H18.8136C18.9512 10.2705 19.2902 10.9304 19.8306 11.4117C20.3709 11.8931 21.0537 12.1338 21.8789 12.1338C22.5404 12.1338 23.1102 12.0355 23.5883 11.839C24.0664 11.6425 24.5149 11.3445 24.934 10.9451L26.113 12.3893C24.9405 13.463 23.5028 13.9999 21.7997 13.9999" fill="url(#paint1_linear_1_328)"/>
<path d="M29.0412 5.32482H26.9976V3.5073H29.0412V0.501099H31.1827V3.5073H34.287V5.32482H31.1828V9.93251C31.1828 10.6986 31.3138 11.2455 31.5758 11.5731C31.8378 11.9007 32.2863 12.0644 32.9215 12.0643C33.203 12.0643 33.4421 12.0529 33.6387 12.03C33.8353 12.0072 34.0514 11.976 34.2871 11.9365V13.7345C34.018 13.8123 33.7439 13.8714 33.4667 13.9113C33.1495 13.958 32.8293 13.981 32.5088 13.9801C30.1967 13.9801 29.0408 12.716 29.0409 10.1879L29.0412 5.32482Z" fill="url(#paint2_linear_1_328)"/>
<path d="M43.3058 7.09337C43.0766 6.51035 42.7149 6.05017 42.2206 5.71283C41.7263 5.3755 41.1549 5.20669 40.5062 5.2064C39.5892 5.2064 38.8589 5.51421 38.3154 6.12985C37.7719 6.74548 37.5001 7.57728 37.4999 8.62527C37.4999 9.68 37.7619 10.5151 38.2859 11.1305C38.8099 11.746 39.5205 12.0538 40.4178 12.054C41.0793 12.054 41.6687 11.8837 42.1862 11.5432C42.7036 11.2027 43.0769 10.7442 43.3061 10.1677L43.3058 7.09337ZM45.4473 13.7543H43.3449V12.3199C42.9823 12.8476 42.4923 13.2751 41.9204 13.5627C41.3439 13.8539 40.6889 13.9997 39.9554 14C39.0516 14 38.251 13.7691 37.5534 13.3072C36.8559 12.8453 36.3075 12.21 35.9081 11.4013C35.5085 10.5924 35.3087 9.66727 35.3088 8.62585C35.3088 7.57796 35.5118 6.65119 35.9179 5.84552C36.3241 5.03985 36.8857 4.40802 37.6028 3.95001C38.3201 3.49161 39.1437 3.26236 40.0736 3.26227C40.7744 3.26227 41.4032 3.39819 41.9599 3.67002C42.5091 3.93577 42.9847 4.33214 43.3452 4.8244V3.50767H45.4476L45.4473 13.7543Z" fill="url(#paint3_linear_1_328)"/>
<defs>
<linearGradient id="paint0_linear_1_328" x1="1.12491" y1="6.77038" x2="14.7274" y2="6.77038" gradientUnits="userSpaceOnUse">
<stop stop-color="#ED0101"/>
<stop offset="1" stop-color="#ED2B01"/>
</linearGradient>
<linearGradient id="paint1_linear_1_328" x1="15.3782" y1="8.63075" x2="27.0848" y2="8.63075" gradientUnits="userSpaceOnUse">
<stop stop-color="#FA0606"/>
<stop offset="0.53125" stop-color="#FF3D00"/>
<stop offset="1" stop-color="#E97001"/>
</linearGradient>
<linearGradient id="paint2_linear_1_328" x1="26.0731" y1="7.2406" x2="34.8383" y2="7.2406" gradientUnits="userSpaceOnUse">
<stop stop-color="#FA0606"/>
<stop offset="0.6875" stop-color="#FF3D00"/>
<stop offset="1" stop-color="#6701E9" stop-opacity="0.08"/>
</linearGradient>
<linearGradient id="paint3_linear_1_328" x1="34.0229" y1="8.63113" x2="46.2142" y2="8.63113" gradientUnits="userSpaceOnUse">
<stop offset="0.854167" stop-color="#FA3206" stop-opacity="0.65"/>
<stop offset="1" stop-color="#E90101" stop-opacity="0.36"/>
</linearGradient>
</defs>
</svg>
