<svg width="16" height="5" viewBox="0 0 16 5" fill="none" xmlns="http://www.w3.org/2000/svg">
<path d="M1.52553 3.32425C1.81577 3.32425 2.05106 3.01489 2.05106 2.63329C2.05106 2.25168 1.81577 1.94232 1.52553 1.94232C1.23529 1.94232 1 2.25168 1 2.63329C1 3.01489 1.23529 3.32425 1.52553 3.32425Z" stroke="white" stroke-width="2"/>
<path d="M7.57655 3.32425C7.86679 3.32425 8.10208 3.01489 8.10208 2.63329C8.10208 2.25168 7.86679 1.94232 7.57655 1.94232C7.28631 1.94232 7.05103 2.25168 7.05103 2.63329C7.05103 3.01489 7.28631 3.32425 7.57655 3.32425Z" stroke="white" stroke-width="2"/>
<path d="M13.6276 3.32425C13.9178 3.32425 14.1531 3.01489 14.1531 2.63329C14.1531 2.25168 13.9178 1.94232 13.6276 1.94232C13.3373 1.94232 13.1021 2.25168 13.1021 2.63329C13.1021 3.01489 13.3373 3.32425 13.6276 3.32425Z" stroke="white" stroke-width="2"/>
</svg>
