<svg width="25" height="25" viewBox="0 0 25 25" fill="none" xmlns="http://www.w3.org/2000/svg">
<path fill-rule="evenodd" clip-rule="evenodd" d="M8 0H12.1889L16.3513 5.94444H10.8636L6.76733 0.0943841C7.16913 0.0322429 7.5808 0 8 0ZM17.9024 8.15972L17.7517 7.94444H0.000188884L0 8V17C0 21.4183 3.58172 25 8 25H17C21.4183 25 25 21.4183 25 17V8L24.9998 7.94444H18.2099L17.9024 8.15972ZM14.6305 0L18.7928 5.94444H24.7334C23.8262 2.52221 20.7076 0 17 0H14.6305ZM4.74332 0.690697C2.55776 1.66595 0.890018 3.59268 0.266549 5.94444H8.42203L4.74332 0.690697ZM16.5556 16.7827C17.2222 16.3978 17.2222 15.4355 16.5556 15.0506L11.3056 12.0196C10.6389 11.6347 9.80556 12.1158 9.80556 12.8856V18.9478C9.80556 19.7176 10.6389 20.1987 11.3056 19.8138L16.5556 16.7827Z" fill="white"/>
</svg>
