<svg width="19" height="23" viewBox="0 0 19 23" fill="none" xmlns="http://www.w3.org/2000/svg">
<path d="M9.5 12.6667C8.10025 12.6667 6.75782 12.1106 5.76805 11.1208C4.77827 10.1311 4.22222 8.78864 4.22222 7.38889H6.33333C6.33333 8.22874 6.66696 9.0342 7.26083 9.62806C7.85469 10.2219 8.66015 10.5556 9.5 10.5556C10.3399 10.5556 11.1453 10.2219 11.7392 9.62806C12.333 9.0342 12.6667 8.22874 12.6667 7.38889H14.7778C14.7778 8.78864 14.2217 10.1311 13.232 11.1208C12.2422 12.1106 10.8998 12.6667 9.5 12.6667ZM9.5 2.11111C10.3399 2.11111 11.1453 2.44474 11.7392 3.03861C12.333 3.63247 12.6667 4.43793 12.6667 5.27778H6.33333C6.33333 4.43793 6.66696 3.63247 7.26083 3.03861C7.85469 2.44474 8.66015 2.11111 9.5 2.11111ZM16.8889 5.27778H14.7778C14.7778 4.58469 14.6413 3.89839 14.376 3.25806C14.1108 2.61773 13.722 2.03591 13.232 1.54583C12.7419 1.05574 12.16 0.66698 11.5197 0.401747C10.8794 0.136514 10.1931 0 9.5 0C8.10025 0 6.75782 0.55605 5.76805 1.54583C4.77827 2.5356 4.22222 3.87802 4.22222 5.27778H2.11111C0.939444 5.27778 0 6.21722 0 7.38889V20.0556C0 20.6155 0.22242 21.1524 0.61833 21.5483C1.01424 21.9442 1.55121 22.1667 2.11111 22.1667H16.8889C17.4488 22.1667 17.9858 21.9442 18.3817 21.5483C18.7776 21.1524 19 20.6155 19 20.0556V7.38889C19 6.82899 18.7776 6.29202 18.3817 5.89611C17.9858 5.5002 17.4488 5.27778 16.8889 5.27778Z" fill="white"/>
</svg>
