<svg width="21" height="23" viewBox="0 0 21 23" fill="none" xmlns="http://www.w3.org/2000/svg">
<path d="M10.9566 14.5C10.2343 14.5 9.52818 14.2654 8.92758 13.8259C8.32698 13.3864 7.85887 12.7616 7.58245 12.0307C7.30603 11.2998 7.2337 10.4956 7.37462 9.71964C7.51554 8.94372 7.86338 8.23098 8.37414 7.67157C8.88491 7.11216 9.53566 6.7312 10.2441 6.57686C10.9526 6.42252 11.6869 6.50173 12.3542 6.80448C13.0216 7.10723 13.592 7.61992 13.9933 8.27772C14.3946 8.93552 14.6088 9.70888 14.6088 10.5C14.6088 11.5609 14.224 12.5783 13.5391 13.3284C12.8542 14.0786 11.9252 14.5 10.9566 14.5ZM10.9566 8.1C10.5232 8.1 10.0996 8.24076 9.73919 8.50447C9.37884 8.76819 9.09797 9.14302 8.93212 9.58156C8.76626 10.0201 8.72287 10.5027 8.80742 10.9682C8.89197 11.4338 9.10067 11.8614 9.40713 12.1971C9.71359 12.5327 10.104 12.7613 10.5291 12.8539C10.9542 12.9465 11.3948 12.899 11.7952 12.7173C12.1956 12.5357 12.5378 12.228 12.7786 11.8334C13.0194 11.4387 13.1479 10.9747 13.1479 10.5C13.1479 9.86348 12.9171 9.25303 12.5061 8.80295C12.0952 8.35286 11.5378 8.1 10.9566 8.1Z" fill="#7D7D7D"/>
<path d="M17.5097 21.5C17.3113 21.4972 17.1218 21.4101 16.9815 21.2572C16.8412 21.1044 16.7612 20.8979 16.7586 20.6818C16.7586 18.5545 15.6972 17.1364 10.4999 17.1364C5.3026 17.1364 4.24112 18.5545 4.24112 20.6818C4.24112 20.8988 4.16199 21.1069 4.02114 21.2604C3.88029 21.4138 3.68926 21.5 3.49007 21.5C3.29087 21.5 3.09984 21.4138 2.95899 21.2604C2.81814 21.1069 2.73901 20.8988 2.73901 20.6818C2.73901 15.5 8.17663 15.5 10.4999 15.5C12.8231 15.5 18.2608 15.5 18.2608 20.6818C18.2582 20.8979 18.1782 21.1044 18.0379 21.2572C17.8976 21.4101 17.7081 21.4972 17.5097 21.5Z" fill="#7D7D7D"/>
<path d="M0.75 4.86364C0.75 4.17328 1.30964 3.61364 2 3.61364H7.71048C8.5476 3.61364 9.33913 3.23234 9.86091 2.57774L9.97906 2.42953C10.4795 1.80171 11.4336 1.80171 11.934 2.42953L12.5205 1.96204L11.934 2.42953L12.0521 2.57774C12.5739 3.23234 13.3654 3.61364 14.2026 3.61364H19C19.6904 3.61364 20.25 4.17328 20.25 4.86364V20.5C20.25 21.1904 19.6904 21.75 19 21.75H2C1.30964 21.75 0.75 21.1904 0.75 20.5V4.86364Z" stroke="#7D7D7D" stroke-width="1.5"/>
</svg>
